{"title":"(HSix.Nations.Rugby.Union-Wales.v.England-2013.03.16.720p.x264 ","uid":8268729,"size":3424783962,"categoryP":"video","categoryS":"hd___tv_shows","magnet":"?xt=urn:btih:5c6d72ec553b88785ec24c602c7b310ade578b04&amp;dn=+%28HSix.Nations.Rugby.Union-Wales.v.England-2013.03.16.720p.x264+&amp;tr=udp%3A%2F%2Ftracker.openbittorrent.com%3A80&amp;tr=udp%3A%2F%2Fopen.demonii.com%3A1337&amp;tr=udp%3A%2F%2Ftracker.coppersurfer.tk%3A6969&amp;tr=udp%3A%2F%2Fexodus.desync.com%3A6969","seeders":2,"leechers":0,"uploader":"rugbybill","files":4,"time":1363559412,"description":"SPORT: Six Nations Rugby Union - Wales v England\nOn: BBC 1 HD\nDate: Saturday 16th March 2013 \nTime: 16:30 to 19:00 \n\nJohn Inverdale introduces live coverage from Cardiff as Wales take on old foes England on the final weekend of the 2013 Six Nations. England ended a three-game losing streak in Cardiff when they won on their last Six Nations visit to the Millennium Stadium two years ago, but Wales were the victors in last year's clash when they triumphed 19-12 at Twickenham on their way to sealing the Grand Slam. Things did not go quite so well for the Welsh in the rest of 2012, but nothing stokes their fire quite like a visit from England, and a full-blooded encounter can always be expected. Expert analysis comes from Sir Clive Woodward, Jeremy Guscott and Jonathan Davies, with commentary by Eddie Butler and Brian Moore.\n\n\n\nGeneral\nComplete name: 2013.03.16.6N.Wales.v.England.720p.x264.mp4\nFormat: MPEG-4\nFormat profile: Base Media\nCodec ID: isom\nFile size: 3.19 GiB\nDuration: 2h 8mn\nOverall bit rate mode: Variable\nOverall bit rate: 3 553 Kbps\n\nVideo\nID: 1\nFormat: AVC\nFormat/Info: Advanced Video Codec\nFormat profile: &lt;a class=&quot;__cf_email__&quot; href=&quot;/cdn-cgi/l/email-protection&quot; data-cfemail=&quot;377f5e505f777b031906&quot;&gt;[email&amp;#160;protected]&lt;/a&gt;&lt;script cf-hash='f9e31' type=&quot;text/javascript&quot;&gt;\n/* &lt;![CDATA[ */!function(){try{var t=&quot;currentScript&quot;in document?document.currentScript:function(){for(var t=document.getElementsByTagName(&quot;script&quot;),e=t.length;e--;)if(t[e].getAttribute(&quot;cf-hash&quot;))return t[e]}();if(t&amp;&amp;t.previousSibling){var e,r,n,i,c=t.previousSibling,a=c.getAttribute(&quot;data-cfemail&quot;);if(a){for(e=&quot;&quot;,r=parseInt(a.substr(0,2),16),n=2;a.length-n;n+=2)i=parseInt(a.substr(n,2),16)^r,e+=String.fromCharCode(i);e=document.createTextNode(e),c.parentNode.replaceChild(e,c)}}}catch(u){}}();/* ]]&gt; */&lt;/script&gt;\nFormat settings, CABAC: Yes\nFormat settings, ReFrames: 4 frames\nCodec ID: avc1\nCodec ID/Info: Advanced Video Coding\nDuration: 2h 8mn\nBit rate: 3 425 Kbps\nMaximum bit rate: 10.6 Mbps\nWidth: 1 280 pixels\nHeight: 720 pixels\nDisplay aspect ratio: 16:9\nFrame rate mode: Constant\nFrame rate: 25.000 fps\nColor space: YUV\nChroma subsampling: 4:2:0\nBit depth: 8 bits\nScan type: Progressive\nBits/(Pixel*Frame): 0.149\nStream size: 3.07 GiB (96%)\nWriting library: x264 core 130 r2273 b3065e6\n\nAudio\nID: 2\nFormat: AAC\nFormat/Info: Advanced Audio Codec\nFormat profile: LC\nCodec ID: 40\nDuration: 2h 8mn\nBit rate mode: Variable\nBit rate: 124 Kbps\nMaximum bit rate: 129 Kbps\nChannel(s): 2 channels\nChannel positions: Front: L R\nSampling rate: 48.0 KHz\nCompression mode: Lossy\nDelay relative to video: 80ms\nStream size: 114 MiB (3%)\nLanguage: English","torrent":{"xt":"urn:btih:5c6d72ec553b88785ec24c602c7b310ade578b04","amp;dn":"+%28HSix.Nations.Rugby.Union-Wales.v.England-2013.03.16.720p.x264+","amp;tr":["udp%3A%2F%2Ftracker.openbittorrent.com%3A80","udp%3A%2F%2Fopen.demonii.com%3A1337","udp%3A%2F%2Ftracker.coppersurfer.tk%3A6969","udp%3A%2F%2Fexodus.desync.com%3A6969"],"infoHash":"5c6d72ec553b88785ec24c602c7b310ade578b04","infoHashBuffer":{"type":"Buffer","data":[92,109,114,236,85,59,136,120,94,194,76,96,44,123,49,10,222,87,139,4]},"announce":[],"urlList":[]}}